<svg width="70" height="62" viewBox="0 0 70 62" fill="none" xmlns="http://www.w3.org/2000/svg">
<path d="M29.508 55.2603C27.9714 55.7961 26.3884 56.1358 24.7824 56.2816C25.9246 55.7146 27.0552 54.9836 28.1582 54.0892C28.5982 53.7325 28.6657 53.0866 28.3089 52.6465C27.9521 52.2065 27.3061 52.1391 26.8662 52.4958C24.0464 54.7823 21.5155 55.5849 19.4265 55.6738C21.0107 54.1924 22.9223 51.5022 25.1789 46.8863C25.4277 46.3772 25.2168 45.763 24.7079 45.5143C24.199 45.2658 23.5847 45.4764 23.3359 45.9853C19.9683 52.8736 17.3668 55.224 16.2695 55.2237C16.196 55.2237 16.1292 55.2132 16.0694 55.1928C15.7029 55.0676 15.469 54.4891 15.3622 54.1552C13.5679 48.5501 18.7645 28.8731 25.6337 19.29L30.261 12.8348C30.5216 12.4711 30.7827 11.9503 30.9961 11.3687L31.1418 10.9717L31.2092 10.9946L31.0815 11.3977C30.8943 11.9885 30.7821 12.5601 30.7656 13.0074L30.4822 20.7492C30.4615 21.3154 30.9037 21.7911 31.4697 21.8119C31.4826 21.8123 31.4953 21.8126 31.5079 21.8126C32.0571 21.8126 32.512 21.3777 32.5322 20.8243L32.7729 14.2475L34.2028 18.3875C34.3494 18.812 34.7469 19.0787 35.1721 19.0787C35.2832 19.0787 35.3961 19.0605 35.507 19.0222C36.0426 18.8373 36.3267 18.2534 36.1418 17.7179L36.0912 17.5716L36.0962 17.5801C36.3889 18.065 37.0191 18.2214 37.5043 17.9285C37.9894 17.6359 38.1454 17.0056 37.8528 16.5205L36.3782 14.0763C36.1057 13.6244 36.0228 13.0716 36.1511 12.5597L38.4701 3.29939C38.6257 2.67823 38.4809 2.03887 38.0728 1.54544C37.6647 1.052 37.0652 0.789696 36.4247 0.825801L30.9985 1.13242C30.2455 1.17509 29.5894 1.63064 29.2861 2.32142L26.275 9.1853C26.0632 9.66834 25.6596 10.0546 25.1675 10.2451L14.5453 14.3585C9.87263 16.168 6.05112 19.2666 3.49356 23.319C1.11912 27.0813 -0.0873842 31.4826 0.00438228 36.0473C0.0961487 40.612 1.47866 44.9614 4.00245 48.625C6.72084 52.5714 10.6639 55.5137 15.4057 57.1339C17.9087 57.9892 20.4538 58.417 22.9709 58.4168C25.4242 58.4168 27.8509 58.0102 30.183 57.1971C30.7178 57.0105 31.0002 56.4256 30.8137 55.8907C30.6272 55.3559 30.0428 55.0734 29.508 55.2603ZM31.1505 3.17877L36.4611 2.87872L34.6749 10.0113L29.0034 8.07343L31.1505 3.17877ZM5.69226 47.4616C3.39701 44.1296 2.13949 40.1683 2.05593 36.0063C1.97223 31.8442 3.06946 27.8358 5.22892 24.414C7.54974 20.7367 11.0276 17.921 15.2867 16.2718L23.2562 13.1856L18.9277 16.0198C15.6975 18.1349 12.8628 21.2847 10.7296 25.1286C8.76158 28.6749 7.42051 32.7237 6.85103 36.8378C6.77335 37.399 7.16531 37.9168 7.72644 37.9944C7.77417 38.0011 7.82149 38.0042 7.8684 38.0042C8.3725 38.0042 8.81205 37.6323 8.88316 37.1189C10.0162 28.932 14.2957 21.5047 20.0516 17.7359L27.9151 12.5869L23.9668 18.095C20.7157 22.6304 17.4683 29.9389 15.2801 37.6449C13.3751 44.3543 12.6051 50.1181 13.124 53.5207C12.101 52.6533 11.2323 51.5395 10.5289 50.1819C9.29413 47.7987 8.62728 44.7449 8.60061 41.3505C8.5961 40.7841 8.13248 40.3242 7.56684 40.333C7.00038 40.3375 6.54483 40.8003 6.5492 41.3669C6.57765 44.9713 7.26638 48.1475 8.51555 50.7214C7.46058 49.7417 6.5131 48.6532 5.69226 47.4616Z" fill="white"/>
<path d="M48.1503 17.4775C36.1022 17.4775 26.3003 27.2794 26.3003 39.3277C26.3003 51.3757 36.1021 61.1776 48.1503 61.1776C60.1985 61.1776 70.0003 51.3757 70.0003 39.3277C70.0001 27.2794 60.1983 17.4775 48.1503 17.4775ZM48.1503 59.1261C37.2333 59.1261 28.3517 50.2446 28.3517 39.3275C28.3517 28.4105 37.2332 19.5288 48.1503 19.5288C59.0673 19.5288 67.9488 28.4105 67.9488 39.3275C67.9488 50.2446 59.0672 59.1261 48.1503 59.1261Z" fill="white"/>
<path d="M48.1502 21.6079C38.3796 21.6079 30.4307 29.5569 30.4307 39.3274C30.4307 49.0979 38.3796 57.0468 48.1502 57.0468C57.9208 57.0468 65.8699 49.0979 65.8699 39.3274C65.8699 29.5569 57.9208 21.6079 48.1502 21.6079ZM48.1502 54.9956C39.5108 54.9956 32.4821 47.9669 32.4821 39.3276C32.4821 30.6883 39.5108 23.6595 48.1502 23.6595C56.7897 23.6595 63.8185 30.6883 63.8185 39.3276C63.8185 47.9669 56.7897 54.9956 48.1502 54.9956Z" fill="white"/>
<path d="M48.1502 26.635C41.1515 26.635 35.4578 32.3289 35.4578 39.3276C35.4578 46.3262 41.1515 52.0201 48.1502 52.0201C52.843 52.0201 57.1358 49.4399 59.3533 45.2863C59.6201 44.7866 59.4312 44.1653 58.9315 43.8984C58.4316 43.6315 57.8103 43.8205 57.5436 44.3202C55.6836 47.8045 52.0843 49.9689 48.1502 49.9689C42.2828 49.9689 37.5092 45.1954 37.5092 39.3278C37.5092 33.4602 42.2828 28.6866 48.1502 28.6866C54.0178 28.6866 58.7915 33.4602 58.7915 39.3278C58.7915 39.7019 58.7703 40.0882 58.7285 40.4752C58.6678 41.0384 59.0752 41.5441 59.6384 41.605C60.2013 41.6658 60.7073 41.2583 60.7682 40.6951C60.8177 40.2353 60.8429 39.7753 60.8429 39.3279C60.8427 32.3289 55.1488 26.635 48.1502 26.635Z" fill="white"/>
<path d="M40.7703 39.3276C40.7703 43.3969 44.0808 46.7075 48.1501 46.7075C52.2194 46.7075 55.53 43.3969 55.53 39.3276C55.53 35.2583 52.2193 31.9478 48.1501 31.9478C44.081 31.9478 40.7703 35.2583 40.7703 39.3276ZM53.4786 39.3276C53.4786 42.2657 51.0882 44.6561 48.1501 44.6561C45.2121 44.6561 42.8217 42.2657 42.8217 39.3276C42.8217 36.3896 45.212 33.9992 48.1501 33.9992C51.0883 33.9992 53.4786 36.3895 53.4786 39.3276Z" fill="white"/>
</svg>
